<svg xmlns="http://www.w3.org/2000/svg" viewBox="0 0 960 350" width="200" height="70">
  <!-- FedEx Logo SVG -->
  <g>
    <!-- Purple FED part -->
    <path fill="#4D148C" d="M0,176.3h96.2v-42.6H42.6v-28.9h53.6V62.2H0V176.3z"/>
    <path fill="#4D148C" d="M107.9,176.3h41.5v-45.2h53.6v45.2h41.5V62.2h-41.5v28.9h-53.6V62.2h-41.5V176.3z"/>
    <path fill="#4D148C" d="M255.8,176.3h96.2v-42.6h-53.6v-14.2h53.6V77h-53.6V62.2h53.6V19.6h-96.2V176.3z"/>
    
    <!-- Orange EX part -->
    <path fill="#FF6600" d="M383.7,176.3h41.5v-45.2h10.5l31,45.2h51.5l-38.9-49.9c16.8-5.8,29.4-21,29.4-39.4c0-23.1-18.9-41.5-42.1-41.5h-83V176.3z M425.2,62.2h31c5.8,0,10.5,4.7,10.5,10.5c0,5.8-4.7,10.5-10.5,10.5h-31V62.2z"/>
    <path fill="#FF6600" d="M535.8,176.3h41.5v-45.2h53.6v45.2h41.5V62.2h-41.5v28.9h-53.6V62.2h-41.5V176.3z"/>
  </g>
</svg>