<svg xmlns="http://www.w3.org/2000/svg" width="1200" height="600" viewBox="0 0 1200 600">
  <!-- Hero Background with Shipping Theme -->
  <defs>
    <!-- Gradients -->
    <linearGradient id="skyGradient" x1="0%" y1="0%" x2="0%" y2="100%">
      <stop offset="0%" stop-color="#87CEEB" />
      <stop offset="100%" stop-color="#1E90FF" />
    </linearGradient>
    
    <!-- Patterns -->
    <pattern id="gridPattern" width="20" height="20" patternUnits="userSpaceOnUse">
      <path d="M 20 0 L 0 0 0 20" fill="none" stroke="rgba(255,255,255,0.1)" stroke-width="1"/>
    </pattern>
  </defs>
  
  <!-- Background -->
  <rect width="1200" height="600" fill="url(#skyGradient)" />
  <rect width="1200" height="600" fill="url(#gridPattern)" />
  
  <!-- Horizon Line -->
  <rect x="0" y="400" width="1200" height="200" fill="#4D148C" opacity="0.7" />
  
  <!-- Shipping Elements -->
  <!-- Cargo Ship -->
  <g transform="translate(100, 380) scale(0.8)">
    <rect x="0" y="0" width="300" height="60" fill="#333" />
    <rect x="50" y="-40" width="200" height="40" fill="#555" />
    <rect x="100" y="-70" width="50" height="30" fill="#777" />
    <!-- Containers -->
    <g>
      <rect x="70" y="-110" width="30" height="20" fill="#FF6600" />
      <rect x="110" y="-110" width="30" height="20" fill="#4D148C" />
      <rect x="150" y="-110" width="30" height="20" fill="#FF6600" />
    </g>
  </g>
  
  <!-- Airplane -->
  <g transform="translate(800, 150) scale(0.6)">
    <path d="M 0,0 L 120,20 L 100,40 L 200,40 L 220,20 L 200,0 L 100,0 L 120,-20 Z" fill="#FFF" />
    <path d="M 180,0 L 180,40 L 240,60 L 240,40 L 220,20 L 240,0 L 240,-20 L 180,-40 Z" fill="#FFF" />
    <rect x="100" y="15" width="100" height="10" fill="#FF6600" />
  </g>
  
  <!-- Delivery Truck -->
  <g transform="translate(600, 380) scale(0.5)">
    <rect x="0" y="0" width="80" height="40" fill="#4D148C" />
    <rect x="80" y="10" width="120" height="30" fill="#FF6600" />
    <circle cx="40" cy="40" r="20" fill="#333" />
    <circle cx="150" cy="40" r="20" fill="#333" />
    <rect x="0" y="-20" width="80" height="20" fill="#4D148C" />
    <text x="90" y="30" font-family="Arial" font-size="20" fill="white">FedEx</text>
  </g>
  
  <!-- Packages/Boxes -->
  <g transform="translate(400, 450)">
    <rect x="0" y="0" width="30" height="30" fill="#FF6600" />
    <rect x="40" y="-10" width="40" height="40" fill="#4D148C" />
    <rect x="90" y="10" width="20" height="20" fill="#FF6600" />
  </g>
  
  <!-- City Skyline Silhouette -->
  <g fill="#000" opacity="0.5" transform="translate(0, 400)">
    <rect x="20" y="-100" width="40" height="100" />
    <rect x="70" y="-150" width="30" height="150" />
    <rect x="110" y="-80" width="50" height="80" />
    <rect x="170" y="-200" width="40" height="200" />
    <rect x="220" y="-120" width="30" height="120" />
    <rect x="260" y="-180" width="50" height="180" />
    <rect x="320" y="-100" width="40" height="100" />
    <rect x="370" y="-220" width="30" height="220" />
    <rect x="410" y="-150" width="40" height="150" />
    <rect x="460" y="-180" width="30" height="180" />
    <rect x="500" y="-120" width="50" height="120" />
    <rect x="560" y="-200" width="40" height="200" />
    <rect x="610" y="-150" width="30" height="150" />
    <rect x="650" y="-100" width="40" height="100" />
    <rect x="700" y="-180" width="50" height="180" />
    <rect x="760" y="-120" width="30" height="120" />
    <rect x="800" y="-220" width="40" height="220" />
    <rect x="850" y="-150" width="30" height="150" />
    <rect x="890" y="-180" width="50" height="180" />
    <rect x="950" y="-100" width="40" height="100" />
    <rect x="1000" y="-200" width="30" height="200" />
    <rect x="1040" y="-150" width="40" height="150" />
    <rect x="1090" y="-120" width="50" height="120" />
    <rect x="1150" y="-180" width="30" height="180" />
  </g>
  
  <!-- Abstract Shipping Routes -->
  <g stroke="#FFF" stroke-width="2" stroke-dasharray="5,5" fill="none">
    <path d="M 100,380 C 300,200 500,300 700,150" />
    <path d="M 700,150 C 800,100 900,200 1100,380" />
    <path d="M 600,380 C 700,300 800,350 900,380" />
  </g>
  
  <!-- Small Clouds -->
  <g fill="#FFF" opacity="0.8">
    <ellipse cx="200" cy="100" rx="50" ry="30" />
    <ellipse cx="500" cy="80" rx="70" ry="40" />
    <ellipse cx="800" cy="120" rx="60" ry="35" />
    <ellipse cx="1000" cy="90" rx="80" ry="45" />
  </g>
</svg>